<svg width="28" height="28" viewBox="0 0 28 28" fill="none" xmlns="http://www.w3.org/2000/svg">
<rect width="28" height="28" rx="4" fill="black"/>
<path d="M22.7969 19.4416C22.519 19.2485 22.2745 19.0113 22.0728 18.7395C21.5901 18.191 20.9758 17.5108 19.8348 17.5108C18.6939 17.5108 18.1015 18.169 17.5968 18.7615C17.0922 19.3539 16.7631 19.7049 16.0171 19.7049C15.2711 19.7049 14.8981 19.288 14.4374 18.7615C13.9766 18.2349 13.3622 17.5108 12.1994 17.5108C11.0365 17.5108 10.466 18.169 9.96136 18.7615C9.45673 19.3539 9.12761 19.7049 8.38162 19.7049C7.63564 19.7049 7.26263 19.288 6.80188 18.7615C6.48867 18.3478 6.0926 18.0041 5.639 17.7522C5.42087 17.6431 5.15566 17.7315 5.0466 17.9497C4.93753 18.1678 5.02593 18.433 5.24406 18.5421C5.58856 18.7497 5.8932 19.0172 6.14363 19.3319C6.64826 19.9243 7.24066 20.5826 8.38162 20.5826C9.52258 20.5826 10.1149 19.9244 10.6196 19.3319C11.1242 18.7395 11.4534 18.3885 12.1994 18.3885C12.9453 18.3885 13.3184 18.8054 13.7791 19.3319C14.2398 19.8585 14.8542 20.5826 16.0171 20.5826C17.18 20.5826 17.7504 19.9244 18.2551 19.3319C18.7597 18.7395 19.0888 18.3885 19.8348 18.3885C20.5808 18.3885 20.9538 18.8054 21.4146 19.3319C21.6703 19.6603 21.9735 19.9486 22.3141 20.1876C22.5201 20.3209 22.7952 20.262 22.9285 20.0559C23.0618 19.85 23.0029 19.5749 22.7969 19.4416Z" fill="#FFEBB9"/>
<path d="M22.7969 16.1505C22.519 15.9573 22.2745 15.7202 22.0728 15.4484C21.5901 14.8999 20.9758 14.2197 19.8348 14.2197C18.6939 14.2197 18.1015 14.8779 17.5968 15.4703C17.0922 16.0628 16.7631 16.4138 16.0171 16.4138C15.2711 16.4138 14.8981 15.9969 14.4374 15.4703C13.9766 14.9438 13.3622 14.2197 12.1994 14.2197C11.0365 14.2197 10.466 14.8779 9.96136 15.4703C9.45673 16.0628 9.12761 16.4138 8.38162 16.4138C7.63564 16.4138 7.26263 15.9969 6.80188 15.4703C6.48867 15.0567 6.0926 14.7129 5.639 14.461C5.42087 14.352 5.15566 14.4404 5.0466 14.6585C4.93753 14.8766 5.02593 15.1419 5.24406 15.2509C5.58856 15.4585 5.8932 15.7261 6.14363 16.0408C6.64826 16.6332 7.24066 17.2914 8.38162 17.2914C9.52258 17.2914 10.1149 16.6332 10.6196 16.0408C11.1242 15.4484 11.4534 15.0973 12.1994 15.0973C12.9453 15.0973 13.3184 15.5142 13.7791 16.0408C14.2398 16.5674 14.8542 17.2914 16.0171 17.2914C17.18 17.2914 17.7504 16.6332 18.2551 16.0408C18.7597 15.4484 19.0888 15.0973 19.8348 15.0973C20.5808 15.0973 20.9538 15.5142 21.4146 16.0408C21.6703 16.3691 21.9735 16.6575 22.3141 16.8965C22.5201 17.0298 22.7952 16.9708 22.9285 16.7648C23.0618 16.5589 23.0029 16.2838 22.7969 16.1505Z" fill="#FFEBB9"/>
<path d="M22.7969 12.6398C22.519 12.4467 22.2745 12.2095 22.0728 11.9377C21.5901 11.3892 20.9758 10.709 19.8348 10.709C18.6939 10.709 18.1015 11.3672 17.5968 11.9597C17.0922 12.5521 16.7631 12.9031 16.0171 12.9031C15.2711 12.9031 14.8981 12.4862 14.4374 11.9597C13.9766 11.4331 13.3622 10.709 12.1994 10.709C11.0365 10.709 10.466 11.3672 9.96136 11.9597C9.45673 12.5521 9.12761 12.9031 8.38162 12.9031C7.63564 12.9031 7.26263 12.4862 6.80188 11.9597C6.48867 11.546 6.0926 11.2023 5.639 10.9504C5.42087 10.8413 5.15566 10.9297 5.0466 11.1478C4.93753 11.366 5.02593 11.6312 5.24406 11.7402C5.58856 11.9479 5.8932 12.2154 6.14363 12.5301C6.64826 13.1225 7.24066 13.7808 8.38162 13.7808C9.52258 13.7808 10.1149 13.1226 10.6196 12.5301C11.1242 11.9377 11.4534 11.5867 12.1994 11.5867C12.9453 11.5867 13.3184 12.0036 13.7791 12.5301C14.2398 13.0567 14.8542 13.7808 16.0171 13.7808C17.18 13.7808 17.7504 13.1226 18.2551 12.5301C18.7598 11.9377 19.0888 11.5867 19.8348 11.5867C20.5808 11.5867 20.9538 12.0036 21.4146 12.5301C21.6703 12.8584 21.9735 13.1468 22.3141 13.3858C22.5201 13.5191 22.7952 13.4602 22.9285 13.2541C23.0618 13.0482 23.0029 12.7731 22.7969 12.6398Z" fill="#FFEBB9"/>
<path d="M5.24424 8.44919C5.58873 8.65682 5.89338 8.92434 6.1438 9.23906C6.64843 9.83147 7.24083 10.4897 8.3818 10.4897C9.52276 10.4897 10.1151 9.83151 10.6198 9.23906C11.1244 8.64666 11.4535 8.29561 12.1995 8.29561C12.9455 8.29561 13.3185 8.71251 13.7793 9.23906C14.24 9.76566 14.8544 10.4897 16.0173 10.4897C17.1802 10.4897 17.7506 9.83151 18.2553 9.23906C18.7599 8.64666 19.089 8.29561 19.835 8.29561C20.581 8.29561 20.954 8.71251 21.4147 9.23906C21.6705 9.56739 21.9736 9.85578 22.3143 10.0948C22.5203 10.2281 22.7954 10.1691 22.9287 9.96312C23.062 9.75713 23.0031 9.48206 22.797 9.34876C22.5191 9.15562 22.2746 8.91846 22.073 8.64666C21.5902 8.09814 20.9759 7.41797 19.835 7.41797C18.694 7.41797 18.1016 8.07618 17.597 8.66862C17.0923 9.26103 16.7632 9.61208 16.0172 9.61208C15.2712 9.61208 14.8982 9.19518 14.4375 8.66862C13.9767 8.14203 13.3624 7.41797 12.1995 7.41797C11.0366 7.41797 10.4662 8.07618 9.96149 8.66862C9.45686 9.26103 9.12774 9.61208 8.38175 9.61208C7.63577 9.61208 7.26284 9.19518 6.80205 8.66858C6.48884 8.25492 6.09278 7.91118 5.63917 7.65928C5.42104 7.55022 5.15583 7.63862 5.04677 7.85675C4.9377 8.07488 5.02615 8.34013 5.24424 8.44919Z" fill="#FFEBB9"/>
</svg>
